<svg width="18" height="13" viewBox="0 0 18 13" fill="none" xmlns="http://www.w3.org/2000/svg">
<path d="M16.9868 1.17429L5.98679 12.1743C5.92294 12.2382 5.84712 12.2889 5.76365 12.3235C5.68019 12.3581 5.59073 12.3759 5.50038 12.3759C5.41003 12.3759 5.32057 12.3581 5.23711 12.3235C5.15365 12.2889 5.07783 12.2382 5.01398 12.1743L0.201476 7.36179C0.0724731 7.23279 0 7.05782 0 6.87538C0 6.69294 0.0724731 6.51798 0.201476 6.38898C0.330479 6.25997 0.505445 6.1875 0.687882 6.1875C0.87032 6.1875 1.04529 6.25997 1.17429 6.38898L5.50038 10.7159L16.014 0.201476C16.143 0.0724727 16.3179 -1.35927e-09 16.5004 0C16.6828 1.35927e-09 16.8578 0.0724727 16.9868 0.201476C17.1158 0.330479 17.1883 0.505445 17.1883 0.687882C17.1883 0.87032 17.1158 1.04529 16.9868 1.17429Z" fill="#9E78CF"/>
</svg>
